<?xml version="1.0" encoding="utf-8"?>
<!-- Generator: Adobe Illustrator 26.5.0, SVG Export Plug-In . SVG Version: 6.00 Build 0)  -->
<svg version="1.1" id="Layer_1" xmlns="http://www.w3.org/2000/svg" xmlns:xlink="http://www.w3.org/1999/xlink" x="0px" y="0px"
	 viewBox="0 0 383.2 337.5" style="enable-background:new 0 0 383.2 337.5;" xml:space="preserve">
<style type="text/css">
	.st0{fill:#FFFFFF;}
</style>
<g>
	<path class="st0" d="M383.2,59.3c-2.7,9-5.5,18.1-8.1,27.1c-12.3,42.8-24.4,85.6-36.7,128.5c-2.2,7.6-5.6,10.2-13.5,10.2
		c-62.9,0-125.7,0-188.6-0.1c-3.9,0-5.9,1.1-7.5,4.7c-4.6,9.9,0.3,17.9,11.3,17.9c61.5,0,123,0,184.5,0c1.6,0,3.3-0.1,4.8,0.3
		c5.5,1.2,9.3,6.3,8.8,11.8c-0.5,5.8-5.2,10.3-11.3,10.3c-11.8,0.1-23.7,0-35.6,0c-1.1,0-2.1,0-4.2,0c20.1,6.1,31,21,28.4,38
		c-2.7,17.4-16.6,29.6-33.7,29.5c-16.9-0.1-30.8-12.6-33.1-29.8c-1.8-13.1,4.9-31.9,28.2-37.5c-34.5,0-68.1,0-102.2,0
		c19.3,5.6,30.2,20.4,27.9,37.4c-2.4,17.3-16.4,29.9-33.4,29.9c-17,0-31.2-12.4-33.5-29.8c-1.8-13.2,5.1-32,27.4-37.7
		c-7.6,0-15.3,0-22.9,0c-17.9,0-31.2-10.1-35-26.7c-1.9-8.3-0.7-16.3,3.6-23.5c2.9-4.9,3-9.3,1.4-14.7C93,145.4,76,85.6,59,25.9
		c-0.3-1.1-0.7-2.1-1.1-3.4c-10.3,0-20.5,0-30.7,0c-5.2,0-10.5,0.1-15.7,0C4.9,22.4,0,17.5,0,11.2C0,4.9,5,0.1,11.7,0
		C29.7,0,47.8,0,65.9,0c6.2,0,10,3.1,11.8,9.5C81.1,21.3,84.4,33,87.8,45c1.7,0,3.3,0,4.9,0c91.9,0,183.9,0,275.8-0.1
		c6.9,0,11.8,2,14.7,8.3C383.2,55.3,383.2,57.3,383.2,59.3z"/>
</g>
</svg>
